<svg xmlns="http://www.w3.org/2000/svg" xmlns:v="https://svgstorm.com"
viewBox = "0 0 1080 1080"
width="1080"
height="1080">
<g fill="None" fill-opacity="0.0" stroke="#000000" stroke-opacity="0.00" stroke-width="0.3"><path d="
M 0.00 1080.00 
L 1080.00 1080.00
L 1080.00 0.00
L 0.00 0.00
L 0.00 1080.00
M 798.00 319.00 
C 786.38 330.97 776.10 342.16 763.75 353.75 C 751.41 365.34 743.42 377.46 729.75 388.75 C 716.08 400.04 709.68 418.32 689.00 417.00 C 668.32 415.68 641.95 417.60 620.00 417.00 C 598.05 416.40 573.51 417.28 551.00 417.00 C 528.49 416.72 504.74 417.15 482.00 417.00 C 459.26 416.85 435.81 417.11 413.00 417.00
C 413.00 496.00 413.00 575.00 413.00 654.00
C 536.33 654.00 659.67 654.00 783.00 654.00
C 776.18 662.01 768.58 668.55 761.25 676.25 C 753.91 683.95 746.69 690.30 739.25 698.25 C 731.81 706.19 724.86 711.65 717.25 720.25 C 709.64 728.84 703.22 732.16 695.25 742.25 C 687.28 752.33 673.71 751.75 660.00 751.00 C 646.29 750.25 629.26 751.32 615.00 751.00 C 600.74 750.68 585.46 751.07 571.00 751.00 C 556.54 750.93 541.53 750.87 527.00 751.00 C 512.47 751.13 497.50 750.58 483.00 751.00 C 468.50 751.42 453.36 750.01 439.00 751.00 C 424.64 751.99 409.01 748.77 395.00 751.00 C 380.99 753.23 372.27 746.32 364.25 736.75 C 356.22 727.19 350.03 723.24 342.25 714.75 C 334.47 706.26 328.09 700.94 320.25 692.75 C 312.41 684.56 306.48 679.21 298.25 670.75 C 290.01 662.29 280.25 656.74 282.00 643.00 C 283.75 629.26 281.22 613.27 282.00 599.00 C 282.78 584.73 281.61 568.40 282.00 554.00 C 282.39 539.60 281.77 524.23 282.00 510.00 C 282.23 495.77 281.78 479.78 282.00 466.00 C 282.22 452.22 281.65 434.73 282.00 422.00 C 282.35 409.27 294.55 406.24 301.25 397.25 C 307.95 388.26 316.16 383.85 323.25 375.25 C 330.34 366.64 338.50 361.76 345.75 352.75 C 353.01 343.75 360.43 341.27 367.75 330.75 C 375.07 320.23 385.96 317.24 400.00 319.00 C 414.04 320.76 429.60 318.21 444.00 319.00 C 458.40 319.79 473.42 318.64 488.00 319.00 C 502.58 319.36 517.29 318.84 532.00 319.00 C 546.71 319.16 562.26 318.93 577.00 319.00 C 591.74 319.07 606.29 318.97 621.00 319.00 C 635.71 319.03 650.29 318.98 665.00 319.00 C 679.71 319.02 694.26 318.99 709.00 319.00 C 723.74 319.01 738.19 319.00 753.00 319.00 C 767.81 319.00 783.14 319.00 798.00 319.00
M 613.00 543.00 
C 613.00 507.67 613.00 472.33 613.00 437.00
C 631.67 437.00 650.33 437.00 669.00 437.00
C 669.00 497.67 669.00 558.33 669.00 619.00
C 649.86 620.83 625.65 620.78 612.77 607.23 C 599.89 593.68 587.80 587.69 574.92 576.08 C 562.04 564.47 550.05 555.68 537.25 544.75 C 524.44 533.83 512.03 524.39 499.00 514.00
C 499.57 529.54 498.25 545.51 499.00 561.00 C 499.75 576.49 497.58 593.77 499.00 609.00 C 500.42 624.23 485.19 626.17 474.92 632.92 C 464.66 639.67 454.74 644.64 444.00 650.00
C 444.00 579.00 444.00 508.00 444.00 437.00
C 459.17 437.28 481.30 433.78 492.25 443.75 C 503.20 453.73 511.88 459.54 522.25 468.75 C 532.62 477.97 542.54 484.51 552.70 493.30 C 562.85 502.10 572.53 509.88 582.75 518.25 C 592.97 526.61 602.60 534.99 613.00 543.00 Z"/>
</g>
<g fill="None" fill-opacity="0.0" stroke="#FEFEFE" stroke-opacity="1.00" stroke-width="0.3"><path d="
M 798.00 319.00 
C 783.14 319.00 767.81 319.00 753.00 319.00 C 738.19 319.00 723.74 319.01 709.00 319.00 C 694.26 318.99 679.71 319.02 665.00 319.00 C 650.29 318.98 635.71 319.03 621.00 319.00 C 606.29 318.97 591.74 319.07 577.00 319.00 C 562.26 318.93 546.71 319.16 532.00 319.00 C 517.29 318.84 502.58 319.36 488.00 319.00 C 473.42 318.64 458.40 319.79 444.00 319.00 C 429.60 318.21 414.04 320.76 400.00 319.00 C 385.96 317.24 375.07 320.23 367.75 330.75 C 360.43 341.27 353.01 343.75 345.75 352.75 C 338.50 361.76 330.34 366.64 323.25 375.25 C 316.16 383.85 307.95 388.26 301.25 397.25 C 294.55 406.24 282.35 409.27 282.00 422.00 C 281.65 434.73 282.22 452.22 282.00 466.00 C 281.78 479.78 282.23 495.77 282.00 510.00 C 281.77 524.23 282.39 539.60 282.00 554.00 C 281.61 568.40 282.78 584.73 282.00 599.00 C 281.22 613.27 283.75 629.26 282.00 643.00 C 280.25 656.74 290.01 662.29 298.25 670.75 C 306.48 679.21 312.41 684.56 320.25 692.75 C 328.09 700.94 334.47 706.26 342.25 714.75 C 350.03 723.24 356.22 727.19 364.25 736.75 C 372.27 746.32 380.99 753.23 395.00 751.00 C 409.01 748.77 424.64 751.99 439.00 751.00 C 453.36 750.01 468.50 751.42 483.00 751.00 C 497.50 750.58 512.47 751.13 527.00 751.00 C 541.53 750.87 556.54 750.93 571.00 751.00 C 585.46 751.07 600.74 750.68 615.00 751.00 C 629.26 751.32 646.29 750.25 660.00 751.00 C 673.71 751.75 687.28 752.33 695.25 742.25 C 703.22 732.16 709.64 728.84 717.25 720.25 C 724.86 711.65 731.81 706.19 739.25 698.25 C 746.69 690.30 753.91 683.95 761.25 676.25 C 768.58 668.55 776.18 662.01 783.00 654.00
C 659.67 654.00 536.33 654.00 413.00 654.00
C 413.00 575.00 413.00 496.00 413.00 417.00
C 435.81 417.11 459.26 416.85 482.00 417.00 C 504.74 417.15 528.49 416.72 551.00 417.00 C 573.51 417.28 598.05 416.40 620.00 417.00 C 641.95 417.60 668.32 415.68 689.00 417.00 C 709.68 418.32 716.08 400.04 729.75 388.75 C 743.42 377.46 751.41 365.34 763.75 353.75 C 776.10 342.16 786.38 330.97 798.00 319.00 Z"/>
</g>
<g fill="None" fill-opacity="0.0" stroke="#FDFDFD" stroke-opacity="0.98" stroke-width="0.3"><path d="
M 613.00 543.00 
C 602.60 534.99 592.97 526.61 582.75 518.25 C 572.53 509.88 562.85 502.10 552.70 493.30 C 542.54 484.51 532.62 477.97 522.25 468.75 C 511.88 459.54 503.20 453.73 492.25 443.75 C 481.30 433.78 459.17 437.28 444.00 437.00
C 444.00 508.00 444.00 579.00 444.00 650.00
C 454.74 644.64 464.66 639.67 474.92 632.92 C 485.19 626.17 500.42 624.23 499.00 609.00 C 497.58 593.77 499.75 576.49 499.00 561.00 C 498.25 545.51 499.57 529.54 499.00 514.00
C 512.03 524.39 524.44 533.83 537.25 544.75 C 550.05 555.68 562.04 564.47 574.92 576.08 C 587.80 587.69 599.89 593.68 612.77 607.23 C 625.65 620.78 649.86 620.83 669.00 619.00
C 669.00 558.33 669.00 497.67 669.00 437.00
C 650.33 437.00 631.67 437.00 613.00 437.00
C 613.00 472.33 613.00 507.67 613.00 543.00 Z"/>
</g>
<g fill="#000000" fill-opacity="0.00" stroke="None">
<path d="
M 0.00 1080.00 
L 1080.00 1080.00
L 1080.00 0.00
L 0.00 0.00
L 0.00 1080.00
M 798.00 319.00 
C 786.38 330.97 776.10 342.16 763.75 353.75 C 751.41 365.34 743.42 377.46 729.75 388.75 C 716.08 400.04 709.68 418.32 689.00 417.00 C 668.32 415.68 641.95 417.60 620.00 417.00 C 598.05 416.40 573.51 417.28 551.00 417.00 C 528.49 416.72 504.74 417.15 482.00 417.00 C 459.26 416.85 435.81 417.11 413.00 417.00
C 413.00 496.00 413.00 575.00 413.00 654.00
C 536.33 654.00 659.67 654.00 783.00 654.00
C 776.18 662.01 768.58 668.55 761.25 676.25 C 753.91 683.95 746.69 690.30 739.25 698.25 C 731.81 706.19 724.86 711.65 717.25 720.25 C 709.64 728.84 703.22 732.16 695.25 742.25 C 687.28 752.33 673.71 751.75 660.00 751.00 C 646.29 750.25 629.26 751.32 615.00 751.00 C 600.74 750.68 585.46 751.07 571.00 751.00 C 556.54 750.93 541.53 750.87 527.00 751.00 C 512.47 751.13 497.50 750.58 483.00 751.00 C 468.50 751.42 453.36 750.01 439.00 751.00 C 424.64 751.99 409.01 748.77 395.00 751.00 C 380.99 753.23 372.27 746.32 364.25 736.75 C 356.22 727.19 350.03 723.24 342.25 714.75 C 334.47 706.26 328.09 700.94 320.25 692.75 C 312.41 684.56 306.48 679.21 298.25 670.75 C 290.01 662.29 280.25 656.74 282.00 643.00 C 283.75 629.26 281.22 613.27 282.00 599.00 C 282.78 584.73 281.61 568.40 282.00 554.00 C 282.39 539.60 281.77 524.23 282.00 510.00 C 282.23 495.77 281.78 479.78 282.00 466.00 C 282.22 452.22 281.65 434.73 282.00 422.00 C 282.35 409.27 294.55 406.24 301.25 397.25 C 307.95 388.26 316.16 383.85 323.25 375.25 C 330.34 366.64 338.50 361.76 345.75 352.75 C 353.01 343.75 360.43 341.27 367.75 330.75 C 375.07 320.23 385.96 317.24 400.00 319.00 C 414.04 320.76 429.60 318.21 444.00 319.00 C 458.40 319.79 473.42 318.64 488.00 319.00 C 502.58 319.36 517.29 318.84 532.00 319.00 C 546.71 319.16 562.26 318.93 577.00 319.00 C 591.74 319.07 606.29 318.97 621.00 319.00 C 635.71 319.03 650.29 318.98 665.00 319.00 C 679.71 319.02 694.26 318.99 709.00 319.00 C 723.74 319.01 738.19 319.00 753.00 319.00 C 767.81 319.00 783.14 319.00 798.00 319.00
M 613.00 543.00 
C 613.00 507.67 613.00 472.33 613.00 437.00
C 631.67 437.00 650.33 437.00 669.00 437.00
C 669.00 497.67 669.00 558.33 669.00 619.00
C 649.86 620.83 625.65 620.78 612.77 607.23 C 599.89 593.68 587.80 587.69 574.92 576.08 C 562.04 564.47 550.05 555.68 537.25 544.75 C 524.44 533.83 512.03 524.39 499.00 514.00
C 499.57 529.54 498.25 545.51 499.00 561.00 C 499.75 576.49 497.58 593.77 499.00 609.00 C 500.42 624.23 485.19 626.17 474.92 632.92 C 464.66 639.67 454.74 644.64 444.00 650.00
C 444.00 579.00 444.00 508.00 444.00 437.00
C 459.17 437.28 481.30 433.78 492.25 443.75 C 503.20 453.73 511.88 459.54 522.25 468.75 C 532.62 477.97 542.54 484.51 552.70 493.30 C 562.85 502.10 572.53 509.88 582.75 518.25 C 592.97 526.61 602.60 534.99 613.00 543.00 Z"/>
</g>
<g fill="#FEFEFE" fill-opacity="1.00" stroke="None">
<path d="
M 798.00 319.00 
C 783.14 319.00 767.81 319.00 753.00 319.00 C 738.19 319.00 723.74 319.01 709.00 319.00 C 694.26 318.99 679.71 319.02 665.00 319.00 C 650.29 318.98 635.71 319.03 621.00 319.00 C 606.29 318.97 591.74 319.07 577.00 319.00 C 562.26 318.93 546.71 319.16 532.00 319.00 C 517.29 318.84 502.58 319.36 488.00 319.00 C 473.42 318.64 458.40 319.79 444.00 319.00 C 429.60 318.21 414.04 320.76 400.00 319.00 C 385.96 317.24 375.07 320.23 367.75 330.75 C 360.43 341.27 353.01 343.75 345.75 352.75 C 338.50 361.76 330.34 366.64 323.25 375.25 C 316.16 383.85 307.95 388.26 301.25 397.25 C 294.55 406.24 282.35 409.27 282.00 422.00 C 281.65 434.73 282.22 452.22 282.00 466.00 C 281.78 479.78 282.23 495.77 282.00 510.00 C 281.77 524.23 282.39 539.60 282.00 554.00 C 281.61 568.40 282.78 584.73 282.00 599.00 C 281.22 613.27 283.75 629.26 282.00 643.00 C 280.25 656.74 290.01 662.29 298.25 670.75 C 306.48 679.21 312.41 684.56 320.25 692.75 C 328.09 700.94 334.47 706.26 342.25 714.75 C 350.03 723.24 356.22 727.19 364.25 736.75 C 372.27 746.32 380.99 753.23 395.00 751.00 C 409.01 748.77 424.64 751.99 439.00 751.00 C 453.36 750.01 468.50 751.42 483.00 751.00 C 497.50 750.58 512.47 751.13 527.00 751.00 C 541.53 750.87 556.54 750.93 571.00 751.00 C 585.46 751.07 600.74 750.68 615.00 751.00 C 629.26 751.32 646.29 750.25 660.00 751.00 C 673.71 751.75 687.28 752.33 695.25 742.25 C 703.22 732.16 709.64 728.84 717.25 720.25 C 724.86 711.65 731.81 706.19 739.25 698.25 C 746.69 690.30 753.91 683.95 761.25 676.25 C 768.58 668.55 776.18 662.01 783.00 654.00
C 659.67 654.00 536.33 654.00 413.00 654.00
C 413.00 575.00 413.00 496.00 413.00 417.00
C 435.81 417.11 459.26 416.85 482.00 417.00 C 504.74 417.15 528.49 416.72 551.00 417.00 C 573.51 417.28 598.05 416.40 620.00 417.00 C 641.95 417.60 668.32 415.68 689.00 417.00 C 709.68 418.32 716.08 400.04 729.75 388.75 C 743.42 377.46 751.41 365.34 763.75 353.75 C 776.10 342.16 786.38 330.97 798.00 319.00 Z"/>
</g>
<g fill="#FDFDFD" fill-opacity="0.98" stroke="None">
<path d="
M 613.00 543.00 
C 602.60 534.99 592.97 526.61 582.75 518.25 C 572.53 509.88 562.85 502.10 552.70 493.30 C 542.54 484.51 532.62 477.97 522.25 468.75 C 511.88 459.54 503.20 453.73 492.25 443.75 C 481.30 433.78 459.17 437.28 444.00 437.00
C 444.00 508.00 444.00 579.00 444.00 650.00
C 454.74 644.64 464.66 639.67 474.92 632.92 C 485.19 626.17 500.42 624.23 499.00 609.00 C 497.58 593.77 499.75 576.49 499.00 561.00 C 498.25 545.51 499.57 529.54 499.00 514.00
C 512.03 524.39 524.44 533.83 537.25 544.75 C 550.05 555.68 562.04 564.47 574.92 576.08 C 587.80 587.69 599.89 593.68 612.77 607.23 C 625.65 620.78 649.86 620.83 669.00 619.00
C 669.00 558.33 669.00 497.67 669.00 437.00
C 650.33 437.00 631.67 437.00 613.00 437.00
C 613.00 472.33 613.00 507.67 613.00 543.00 Z"/>
</g>
</svg>